<svg xmlns="http://www.w3.org/2000/svg" width="366" height="356" viewBox="0 0 366 356" style="">
  <g id="Group_1" data-name="Group 1" transform="translate(-444 -640)">
    <g id="Rectangle_1" data-name="Rectangle 1" transform="translate(444 640)" fill="#fff" stroke="#707070" stroke-width="15">
      <path width="366" height="356" stroke="none" d="M 35,0 L 331,0 A 35,35,0,0,1,366,35 L 366,321 A 35,35,0,0,1,331,356 L 35,356 A 35,35,0,0,1,0,321 L 0,35 A 35,35,0,0,1,35,0" class="zgbMjkcN_0"></path>
      <path width="351" height="341" fill="none" d="M 34.5,7.5 L 331.5,7.5 A 27,27,0,0,1,358.5,34.5 L 358.5,321.5 A 27,27,0,0,1,331.5,348.5 L 34.5,348.5 A 27,27,0,0,1,7.5,321.5 L 7.5,34.5 A 27,27,0,0,1,34.5,7.5" class="zgbMjkcN_1"></path>
    </g>
    <path id="Line_1" data-name="Line 1" transform="translate(517.5 720.5)" fill="none" stroke="#707070" stroke-width="10" d="M0,0L220,1" class="zgbMjkcN_2"></path>
    <path id="Line_1-2" data-name="Line 1" transform="translate(517.5 743.5)" fill="none" stroke="#707070" stroke-width="10" d="M0,0L220,1" class="zgbMjkcN_3"></path>
    <path id="Line_1-3" data-name="Line 1" transform="translate(517.5 766.5)" fill="none" stroke="#707070" stroke-width="10" d="M0,0L220,1" class="zgbMjkcN_4"></path>
    <path id="Line_1-4" data-name="Line 1" transform="translate(517.5 789.5)" fill="none" stroke="#707070" stroke-width="10" d="M0,0L220,1" class="zgbMjkcN_5"></path>
    <path id="Line_1-5" data-name="Line 1" transform="translate(517.5 812.5)" fill="none" stroke="#707070" stroke-width="10" d="M0,0L220,1" class="zgbMjkcN_6"></path>
    <path id="Line_1-6" data-name="Line 1" transform="translate(517.5 835.5)" fill="none" stroke="#707070" stroke-width="10" d="M0,0L220,1" class="zgbMjkcN_7"></path>
    <path id="Line_1-7" data-name="Line 1" transform="translate(517.5 858.5)" fill="none" stroke="#707070" stroke-width="10" d="M0,0L220,1" class="zgbMjkcN_8"></path>
    <g id="Ellipse_1" data-name="Ellipse 1" transform="translate(506 892)" fill="#fff" stroke="#707070" stroke-width="10">
      <path stroke="none" d="M0,35.5A35.5,35.5 0,1,1 71,35.5A35.5,35.5 0,1,1 0,35.5" class="zgbMjkcN_9"></path>
      <path fill="none" d="M5,35.5A30.5,30.5 0,1,1 66,35.5A30.5,30.5 0,1,1 5,35.5" class="zgbMjkcN_10"></path>
    </g>
    <g id="Ellipse_2" data-name="Ellipse 2" transform="translate(678 892)" fill="#fff" stroke="#a0a0a0" stroke-width="10">
      <path stroke="none" d="M0,35.5A35.5,35.5 0,1,1 71,35.5A35.5,35.5 0,1,1 0,35.5" class="zgbMjkcN_11"></path>
      <path fill="none" d="M5,35.5A30.5,30.5 0,1,1 66,35.5A30.5,30.5 0,1,1 5,35.5" class="zgbMjkcN_12"></path>
    </g>
    <g id="Ellipse_3" data-name="Ellipse 3" transform="translate(592 892)" fill="#fff" stroke="#707070" stroke-width="10">
      <path stroke="none" d="M0,35.5A35.5,35.5 0,1,1 71,35.5A35.5,35.5 0,1,1 0,35.5" class="zgbMjkcN_13"></path>
      <path fill="none" d="M5,35.5A30.5,30.5 0,1,1 66,35.5A30.5,30.5 0,1,1 5,35.5" class="zgbMjkcN_14"></path>
    </g>
  </g>
<style data-made-with="vivus-instant">.zgbMjkcN_0{stroke-dasharray:1384 1386;stroke-dashoffset:1385;animation:zgbMjkcN_draw_0 7200ms linear 0ms infinite,zgbMjkcN_fade 7200ms linear 0ms infinite;}.zgbMjkcN_1{stroke-dasharray:1338 1340;stroke-dashoffset:1339;animation:zgbMjkcN_draw_1 7200ms linear 0ms infinite,zgbMjkcN_fade 7200ms linear 0ms infinite;}.zgbMjkcN_2{stroke-dasharray:221 223;stroke-dashoffset:222;animation:zgbMjkcN_draw_2 7200ms linear 0ms infinite,zgbMjkcN_fade 7200ms linear 0ms infinite;}.zgbMjkcN_3{stroke-dasharray:221 223;stroke-dashoffset:222;animation:zgbMjkcN_draw_3 7200ms linear 0ms infinite,zgbMjkcN_fade 7200ms linear 0ms infinite;}.zgbMjkcN_4{stroke-dasharray:221 223;stroke-dashoffset:222;animation:zgbMjkcN_draw_4 7200ms linear 0ms infinite,zgbMjkcN_fade 7200ms linear 0ms infinite;}.zgbMjkcN_5{stroke-dasharray:221 223;stroke-dashoffset:222;animation:zgbMjkcN_draw_5 7200ms linear 0ms infinite,zgbMjkcN_fade 7200ms linear 0ms infinite;}.zgbMjkcN_6{stroke-dasharray:221 223;stroke-dashoffset:222;animation:zgbMjkcN_draw_6 7200ms linear 0ms infinite,zgbMjkcN_fade 7200ms linear 0ms infinite;}.zgbMjkcN_7{stroke-dasharray:221 223;stroke-dashoffset:222;animation:zgbMjkcN_draw_7 7200ms linear 0ms infinite,zgbMjkcN_fade 7200ms linear 0ms infinite;}.zgbMjkcN_8{stroke-dasharray:221 223;stroke-dashoffset:222;animation:zgbMjkcN_draw_8 7200ms linear 0ms infinite,zgbMjkcN_fade 7200ms linear 0ms infinite;}.zgbMjkcN_9{stroke-dasharray:224 226;stroke-dashoffset:225;animation:zgbMjkcN_draw_9 7200ms linear 0ms infinite,zgbMjkcN_fade 7200ms linear 0ms infinite;}.zgbMjkcN_10{stroke-dasharray:192 194;stroke-dashoffset:193;animation:zgbMjkcN_draw_10 7200ms linear 0ms infinite,zgbMjkcN_fade 7200ms linear 0ms infinite;}.zgbMjkcN_11{stroke-dasharray:224 226;stroke-dashoffset:225;animation:zgbMjkcN_draw_11 7200ms linear 0ms infinite,zgbMjkcN_fade 7200ms linear 0ms infinite;}.zgbMjkcN_12{stroke-dasharray:192 194;stroke-dashoffset:193;animation:zgbMjkcN_draw_12 7200ms linear 0ms infinite,zgbMjkcN_fade 7200ms linear 0ms infinite;}.zgbMjkcN_13{stroke-dasharray:224 226;stroke-dashoffset:225;animation:zgbMjkcN_draw_13 7200ms linear 0ms infinite,zgbMjkcN_fade 7200ms linear 0ms infinite;}.zgbMjkcN_14{stroke-dasharray:192 194;stroke-dashoffset:193;animation:zgbMjkcN_draw_14 7200ms linear 0ms infinite,zgbMjkcN_fade 7200ms linear 0ms infinite;}@keyframes zgbMjkcN_draw{100%{stroke-dashoffset:0;}}@keyframes zgbMjkcN_fade{0%{stroke-opacity:1;}94.44444444444444%{stroke-opacity:1;}100%{stroke-opacity:0;}}@keyframes zgbMjkcN_draw_0{11.11111111111111%{stroke-dashoffset: 1385}38.88888888888889%{ stroke-dashoffset: 0;}100%{ stroke-dashoffset: 0;}}@keyframes zgbMjkcN_draw_1{12.103174603174603%{stroke-dashoffset: 1339}39.88095238095239%{ stroke-dashoffset: 0;}100%{ stroke-dashoffset: 0;}}@keyframes zgbMjkcN_draw_2{13.095238095238097%{stroke-dashoffset: 222}40.87301587301588%{ stroke-dashoffset: 0;}100%{ stroke-dashoffset: 0;}}@keyframes zgbMjkcN_draw_3{14.087301587301587%{stroke-dashoffset: 222}41.86507936507937%{ stroke-dashoffset: 0;}100%{ stroke-dashoffset: 0;}}@keyframes zgbMjkcN_draw_4{15.07936507936508%{stroke-dashoffset: 222}42.85714285714286%{ stroke-dashoffset: 0;}100%{ stroke-dashoffset: 0;}}@keyframes zgbMjkcN_draw_5{16.07142857142857%{stroke-dashoffset: 222}43.84920634920634%{ stroke-dashoffset: 0;}100%{ stroke-dashoffset: 0;}}@keyframes zgbMjkcN_draw_6{17.06349206349206%{stroke-dashoffset: 222}44.841269841269835%{ stroke-dashoffset: 0;}100%{ stroke-dashoffset: 0;}}@keyframes zgbMjkcN_draw_7{18.055555555555554%{stroke-dashoffset: 222}45.83333333333333%{ stroke-dashoffset: 0;}100%{ stroke-dashoffset: 0;}}@keyframes zgbMjkcN_draw_8{19.04761904761905%{stroke-dashoffset: 222}46.82539682539682%{ stroke-dashoffset: 0;}100%{ stroke-dashoffset: 0;}}@keyframes zgbMjkcN_draw_9{20.03968253968254%{stroke-dashoffset: 225}47.817460317460316%{ stroke-dashoffset: 0;}100%{ stroke-dashoffset: 0;}}@keyframes zgbMjkcN_draw_10{21.03174603174603%{stroke-dashoffset: 193}48.80952380952381%{ stroke-dashoffset: 0;}100%{ stroke-dashoffset: 0;}}@keyframes zgbMjkcN_draw_11{22.023809523809526%{stroke-dashoffset: 225}49.801587301587304%{ stroke-dashoffset: 0;}100%{ stroke-dashoffset: 0;}}@keyframes zgbMjkcN_draw_12{23.015873015873016%{stroke-dashoffset: 193}50.79365079365079%{ stroke-dashoffset: 0;}100%{ stroke-dashoffset: 0;}}@keyframes zgbMjkcN_draw_13{24.007936507936506%{stroke-dashoffset: 225}51.78571428571428%{ stroke-dashoffset: 0;}100%{ stroke-dashoffset: 0;}}@keyframes zgbMjkcN_draw_14{25%{stroke-dashoffset: 193}52.77777777777778%{ stroke-dashoffset: 0;}100%{ stroke-dashoffset: 0;}}</style></svg>
