<svg xmlns="http://www.w3.org/2000/svg" width="697.971" height="224.547" viewBox="0 0 697.971 224.547">
  <g id="Layer_2" data-name="Layer 2" transform="translate(0.004 -0.008)">
    <g id="Layer_3" data-name="Layer 3">
      <path id="Path_1" data-name="Path 1" d="M174.48,70.94c-.17,6.73,4,12.3,6.85,15s8.06,5.87,12,6.22,8.81-.26,15-.76,17.78,3.82,25.07,7.73,17.1,12.97,17.1,12.97L345,206.68a1,1,0,0,0,1.73-.9c-1.13-6.6-5.64-23.47-23.53-44.24C302,136.92,271.94,105.19,267,100a2.52,2.52,0,0,0-1.67-.78c-6.53-.44-44-3.8-54.92-23.56C198.49,54,186.53,57.54,183.06,58.54S174.64,64.22,174.48,70.94Zm4.93-4.49c6.6-11.27,18.06-2.2,20-.54s11.12,11.14,6.23,18.86-13.57,4.71-19.12.78c-3.61-2.47-11.41-11.77-7.11-19.1Z" fill="#fbe551"/>
      <path id="Path_2" data-name="Path 2" d="M208.42,9.1c-2.64,7.13.53,14.67,3.58,22s11.23,24.66,13.39,30.49,6.38,10.41,14.79,14.7,11,5,13.57,7.94,3.72,3.6,1.19,11.19,1.5,22.62,1.5,22.62L291,203.56a11.51,11.51,0,0,0,3.59,4.77l20.44,16.06a.84.84,0,0,0,1,0,.87.87,0,0,0,.32-1l-23.56-69-22.44-62s-.88-6.32-7.87-13.33-5.47-9.59-5.19-16.75S257,38,248.67,23.46,234.42,2.6,226.77.58,211.07,2,208.42,9.1Zm7.21-2c7.13-5.34,12-1.21,17.2,3.62A56.24,56.24,0,0,1,250,41.91c2.95,16.11,2,23.3-8,25.62s-14.56-13.92-19.56-25.74c-3.89-8.2-16.06-27.71-6.81-34.65Z" fill="#fbe551"/>
      <path id="Path_3" data-name="Path 3" d="M256.44,118c.11-.12,8.36,7.94,18.41,18s18.12,18.32,18,18.43-8.36-7.95-18.42-18S256.32,118.15,256.44,118Z" fill="#fbe551"/>
      <path id="Path_4" data-name="Path 4" d="M276.94,110.52c-4.89-5.21-8.47-9-9.91-10.5a2.52,2.52,0,0,0-1.67-.78c-1.77-.12-5.82-.46-11-1.27" fill="#fbe551"/>
      <path id="Path_5" data-name="Path 5" d="M254.35,98a27.219,27.219,0,0,1,4,.35c1.24.12,2.7.29,4.33.42.41,0,.83.08,1.25.1l1.31.1h.35a1.079,1.079,0,0,1,.19,0h.18a2.55,2.55,0,0,1,.7.3,2.81,2.81,0,0,1,.6.48l.49.52c2.6,2.75,4.92,5.27,6.59,7.11a26.79,26.79,0,0,1,2.6,3.06,26.137,26.137,0,0,1-2.91-2.78c-1.74-1.76-4.12-4.23-6.71-7-.16-.18-.33-.35-.49-.52a2.5,2.5,0,0,0-.47-.39,2.31,2.31,0,0,0-.56-.24.58.58,0,0,0-.14,0,.8.8,0,0,0-.15,0h-.31l-1.31-.11-1.26-.13c-1.64-.16-3.1-.37-4.33-.54s-2.22-.38-2.9-.51A4,4,0,0,1,254.35,98Z" fill="#fbe551"/>
      <path id="Path_6" data-name="Path 6" d="M260.91,109.25a2.79,2.79,0,1,1,1.22,3.75A2.79,2.79,0,0,1,260.91,109.25Z" fill="#fbe551"/>
      <path id="Path_7" data-name="Path 7" d="M580.09,73.68l.11-.06a2,2,0,0,1,1.14-.72.623.623,0,0,1,.07-.31,5.179,5.179,0,0,0,.2-.68,12.93,12.93,0,0,1,.69-1.85,14.282,14.282,0,0,1,1.12-2,13.691,13.691,0,0,1,4.49-4.34,9.86,9.86,0,0,1,5.58-1.31,12.94,12.94,0,0,1,5.09,1.4A11,11,0,0,1,603,68a10.4,10.4,0,0,1,1.39,6A12.13,12.13,0,0,1,603,78.81c-.68,1.3-1.49,2.53-2.27,3.72-1.4,2.12-2.71,4.11-2.72,5.73V98.71a19.8,19.8,0,0,1,8.55,1.89c7.5,3.37,13,12.45,16.92,19.61,2.68,4.92,3.58,5.79,6.86,9.89,8.61,10.6,38.74,25.4,52.33,33.49,0,1,.07,2.08.1,3.12l3.75-.26c3.84,2.21,6.93,4.73,9,8.34,1.18,2.08,4.78,9.88.14,9.64-1.31-.07-1.57-.36-3.66-1.65-3.19-2-8.26-5.28-12.74-8.24H514c-4.48,3-9.56,6.28-12.74,8.24-2.09,1.29-2.35,1.58-3.66,1.65-4.64.24-1-7.56.14-9.64,2-3.61,5.13-6.13,9-8.34l3.74.26c0-1,.07-2.08.11-3.12,13.58-8.09,43.71-22.89,52.32-33.49,3.27-4.1,4.19-5,6.87-9.89,3.91-7.16,9.41-16.24,16.91-19.61a20.06,20.06,0,0,1,8.79-1.9h-.37V88.25c0-2.47,1.55-4.8,3.19-7.29.74-1.12,1.51-2.29,2.13-3.47a9.272,9.272,0,0,0,1.08-3.73,7.579,7.579,0,0,0-1-4.33,8.25,8.25,0,0,0-3.28-3.07,10,10,0,0,0-4-1.06,7.05,7.05,0,0,0-4,.93,10.7,10.7,0,0,0-3.52,3.44,12.615,12.615,0,0,0-.91,1.58,11.264,11.264,0,0,0-.54,1.48c-.09.29-.14.48-.19.63a5,5,0,0,1-.45,1.25,1.471,1.471,0,0,1,0,.21,1.965,1.965,0,1,1-3.6-1.09h0Zm92.61,96.59-2.39-1.56c-16.36-10.42-71-46.1-73.73-47.9-2.76,1.8-57.37,37.48-73.73,47.9l-2.39,1.56Z" fill="#fbe551" fill-rule="evenodd"/>
      <path id="Path_8" data-name="Path 8" d="M452.42,45.37c-57.29,57.3-103,103.83-102.51,104.33s47-45.23,104.33-102.51a8.41,8.41,0,0,1-1.82-1.82Z" fill="#fbe551"/>
      <path id="Path_9" data-name="Path 9" d="M467.35,34.06a9.277,9.277,0,0,0-.83-1,9.671,9.671,0,0,0-1-.84A9.36,9.36,0,0,0,452.4,45.34a8.41,8.41,0,0,0,1.82,1.82,9.36,9.36,0,0,0,13.11-13.13Z" fill="#fbe551"/>
      <path id="Path_10" data-name="Path 10" d="M453.57,40.42c-.08,0-.19-.26-.27-.77a5.6,5.6,0,0,1,.19-2.19,6.32,6.32,0,0,1,1.73-2.83,6.65,6.65,0,0,1,3.67-1.8,6.81,6.81,0,0,1,4,.68,6.54,6.54,0,0,1,2.45,2.23,5.73,5.73,0,0,1,.82,2,2.972,2.972,0,0,1,0,.82,9.968,9.968,0,0,0-1.47-2.36,6.59,6.59,0,0,0-2.25-1.73,6.17,6.17,0,0,0-3.37-.49A6.06,6.06,0,0,0,456,35.44a6.26,6.26,0,0,0-1.67,2.3C453.66,39.28,453.77,40.41,453.57,40.42Z" fill="#fbe551"/>
      <path id="Path_11" data-name="Path 11" d="M363.1,46.28c57.3,57.28,103.83,103,104.33,102.51s-45.23-47-102.51-104.33a9.676,9.676,0,0,1-.84,1,10.894,10.894,0,0,1-.98.82Z" fill="#fbe551"/>
      <path id="Path_12" data-name="Path 12" d="M351.79,31.34a9.569,9.569,0,0,0-1,.84,10.791,10.791,0,0,0-.84,1,9.37,9.37,0,0,0,13.15,13.1,10.9,10.9,0,0,0,1-.84,9.669,9.669,0,0,0,.84-1,9.37,9.37,0,0,0-13.13-13.12Z" fill="#fbe551"/>
      <path id="Path_13" data-name="Path 13" d="M358.15,45.13c0,.07-.26.18-.77.27a5.85,5.85,0,0,1-2.19-.2,6.37,6.37,0,0,1-2.84-1.72,6.69,6.69,0,0,1-1.11-7.7,6.58,6.58,0,0,1,2.23-2.46,5.6,5.6,0,0,1,2-.81,2.971,2.971,0,0,1,.82,0A14.293,14.293,0,0,0,354,34a6.56,6.56,0,0,0-1.73,2.25,6,6,0,0,0,.93,6.47,6.38,6.38,0,0,0,2.3,1.67C357,45,358.14,44.93,358.15,45.13Z" fill="#fbe551"/>
      <path id="Path_14" data-name="Path 14" d="M424.94,74.67a22,22,0,1,0,0,31.06A22,22,0,0,0,424.94,74.67ZM400.8,91.88a2.77,2.77,0,1,1,3.91,0,2.77,2.77,0,0,1-3.91,0Zm6.38-6.38a2.76,2.76,0,1,1,1.955.812,2.76,2.76,0,0,1-1.955-.812Zm.55,13.31a2.77,2.77,0,1,1,3.91,0,2.77,2.77,0,0,1-3.91,0Zm6.38-6.38a2.76,2.76,0,1,1,1.955.812A2.76,2.76,0,0,1,414.11,92.43Z" fill="#fbe551"/>
      <path id="Path_15" data-name="Path 15" d="M421.78,102.57a2.661,2.661,0,0,1,.48-.7l.62-.79c.23-.33.48-.71.77-1.14s.54-.94.85-1.48a5.917,5.917,0,0,0,.41-.88c.14-.31.28-.63.42-1a19.56,19.56,0,0,0,1.08-4.79,17.63,17.63,0,0,0-.56-5.88,16.983,16.983,0,0,0-32.85.03,17.63,17.63,0,0,0-.56,5.88,19.56,19.56,0,0,0,1.08,4.79l.41,1a7.162,7.162,0,0,0,.42.88c.31.54.55,1.06.85,1.48s.54.81.77,1.14l.62.79a2.661,2.661,0,0,1,.48.7,3.813,3.813,0,0,1-.66-.54c-.19-.19-.45-.43-.72-.72l-.88-1.1c-.33-.41-.61-.93-1-1.47a7.522,7.522,0,0,1-.48-.89c-.15-.32-.32-.64-.48-1a19.67,19.67,0,0,1-1.3-5,18.36,18.36,0,0,1,.44-6.21,17.69,17.69,0,0,1,3.09-6.46,17.928,17.928,0,0,1,28.64,0,17.69,17.69,0,0,1,3.09,6.46,18.091,18.091,0,0,1,.43,6.21,19.269,19.269,0,0,1-1.29,5c-.16.35-.33.67-.48,1a7.528,7.528,0,0,1-.48.89,11.747,11.747,0,0,1-1,1.47l-.88,1.1-.72.72C422,102.42,421.81,102.6,421.78,102.57Z" fill="#fbe551"/>
      <path id="Path_16" data-name="Path 16" d="M154.4,164.55c.81-.44,1.27-.93,1.27-1.39s-.46-1-1.28-1.39a1.59,1.59,0,0,1,0,2.78Z" fill="#fbe551"/>
      <path id="Path_17" data-name="Path 17" d="M146.83,168.51c7,0,12.29-2.3,12.29-5.35s-5.29-5.35-12.29-5.35c-.62,0-1.22,0-1.82.06l-121.1,4a1.516,1.516,0,0,0-1.67,1.26c0,.68.74,1.23,1.67,1.25L145,168.45C145.59,168.48,146.2,168.51,146.83,168.51Zm8.84-5.35c0,2.83-5.49,3.25-8.84,3.25-4.63,0-14-.42-14-3.25s9.38-3.25,14-3.25c3.34,0,8.84,1.09,8.84,3.25Z" fill="#fbe551"/>
      <path id="Path_18" data-name="Path 18" d="M168.43,100c-6.6-11.44-23.63-12.33-32.62-4.06-6.07,5.59-6.55,14.52-5.84,22.81a26.75,26.75,0,0,0-8.91-1.64c-15.35-.1-24,17.08-23.48,33,.57,16.46,14.78,30.83,28.9,23.74,8.79-4.41,10.29-15,9.46-24.86-.79-9.32-3.14-18.39-4.25-27.64,14.54,7,23.63,28,15.31,44.73-4.4,8.83-14.69,13.37-22.84,15.69-9.6,2.73-19.69,1.53-29.08-1.6C85.4,176.92,76.41,171,68.7,163.63c-7.19-6.88-12.11-16-19-23.09C43.56,134.25,36,131,27.79,133c-7.82,1.95-15.33,7.13-21,13.42C-2.95,157.12-2,172.34,8.24,182c9,8.43,25.35,11.74,31.53-2.26.13-.29-.25-.55-.38-.26C32.25,194.88,14,187.8,6,177.44a22.33,22.33,0,0,1-2.85-22.75c4.15-9.41,14-15.84,22.47-18.9,10.67-3.85,19.4,2.38,26.3,11.27,6.12,7.9,11,16.13,18.52,22.57,14.75,12.67,33.21,19.9,51.7,16.33a45.56,45.56,0,0,0,22-11.19c6.41-5.92,9-15.07,8.5-24.27-.73-14.09-9.8-26.29-21.16-31.14-.18-1.84-.32-3.69-.36-5.55-.14-5.24.63-10.75,3.76-14.8,4-5.17,10.83-6.34,16.51-6.56,9.92-.38,17.68,8.32,18.17,19.42.33,7.38-3.2,14.28-10,14.92a9.84,9.84,0,0,1-8.19-3.21c-2.88-3.21-1.59-7.64.46-10.9.41-.65-.53-1.48-1-.85-6,8.65-.2,17.39,8.7,17.19C172.53,128.74,174.13,109.91,168.43,100Zm-38,22.83c1.43,11.6,5.1,23.62,3.57,35.43-.68,5.27-3,9.7-7,12.44-8.28,5.61-17.45,1.75-22.94-6.55-10.91-16.51-2-44.65,17.07-45.17a22.79,22.79,0,0,1,9.09,1.66,19.777,19.777,0,0,0,.18,2.2Z" fill="#fbe551"/>
    </g>
  </g>
</svg>
